# xmcd CD database file
#
# Track frame offsets:
#	150
#	19623
#	40596
#	62469
#	86892
#	97665
#	129588
#	154686
#
# Disc length: 2372 seconds
#
# Revision: 1
# Processed by: cddbd v1.5.2PL0 Copyright (c) Steve Scherf et al.
# Submitted via: CDex 1.70beta2
#
DISCID=52094208
DTITLE=BoD (96) - USA - Dixieland Jazz - Best of Dixieland
DYEAR=1996
DGENRE=Jazz
TTITLE0=Alliance Hall Dixieland Band - Strike Up the Band
TTITLE1=Al Hirt - Bourbon Street Parade
TTITLE2=Dukes of Dixieland - Tiger Rag
TTITLE3=Al Hirt - Sweet Georgia Brown
TTITLE4=Al Hirt - South Rampart Street Parade
TTITLE5=Al Hirt - Basin Street Blues
TTITLE6=Dejan's Olympic Brass Band - Milenberg Joys
TTITLE7=Dejan's Olympic Brass Band - Battle Hymn of the Republic - America the Beautiful
EXTD=YEAR: 1996
EXTT0=
EXTT1=
EXTT2=
EXTT3=
EXTT4=
EXTT5=
EXTT6=
EXTT7=
PLAYORDER=
